# xmcd
#
# Track frame offsets: 
#        150
#        25761
#        26991
#        48332
#        72248
#        88847
#        116485
#        139501
#        157338
#        170586
#        189746
#
# Disc length: 2728 seconds
#
# Revision: 0
# Processed by: cddbd v1.5.2PL0 Copyright (c) Steve Scherf et al.
# Submitted via: ExactAudioCopyFreeDBPlugin 1.0
#
DISCID=9b0aa60b
DTITLE=Lenine McDonald - Lenine McDonald
DYEAR=2012
DGENRE=Alternative
TTITLE0=Petite Muse
TTITLE1=O Navio Negreiro
TTITLE2=Cruelle et Belle
TTITLE3=Donne moi des Ailes
TTITLE4=Sorry Angel
TTITLE5=L'origine du monde
TTITLE6=Tu me manques
TTITLE7=Pleine Lune
TTITLE8=Ces presque Riens
TTITLE9=Etre Humains
TTITLE10=Serons nous Libres
EXTD=
EXTT0=
EXTT1=
EXTT2=
EXTT3=
EXTT4=
EXTT5=
EXTT6=
EXTT7=
EXTT8=
EXTT9=
EXTT10=
PLAYORDER=
